<svg width="22" height="22" viewBox="0 0 22 22" fill="none" xmlns="http://www.w3.org/2000/svg">
    <mask id="path-1-outside-1_4_460" maskUnits="userSpaceOnUse" x="3" y="1" width="14" height="17"
        fill="black">
        <rect fill="white" x="3" y="1" width="14" height="17" />
        <path
            d="M16.5188 7.00599C16.5188 7.96599 16.2967 8.84002 15.8525 9.62808C15.4083 10.4018 14.7492 11.0179 13.8752 11.4764C13.0155 11.9349 11.9695 12.1642 10.7373 12.1642H8.84596V17H4.07462V1.78332H10.7373C12.6 1.78332 14.0256 2.25616 15.0143 3.20182C16.0173 4.14749 16.5188 5.41555 16.5188 7.00599ZM10.2 8.40301C11.1886 8.40301 11.683 7.93734 11.683 7.00599C11.683 6.07465 11.1886 5.60898 10.2 5.60898H8.84596V8.40301H10.2Z" />
    </mask>
    <path
        d="M15.8525 9.62808L16.2189 9.83841L16.2205 9.8355L15.8525 9.62808ZM13.8752 11.4764L13.6789 11.1023L13.6764 11.1037L13.8752 11.4764ZM8.84596 12.1642V11.7417H8.42351V12.1642H8.84596ZM8.84596 17V17.4224H9.2684V17H8.84596ZM4.07462 17H3.65218V17.4224H4.07462V17ZM4.07462 1.78332V1.36087H3.65218V1.78332H4.07462ZM15.0143 3.20182L14.7223 3.50711L14.7245 3.50919L15.0143 3.20182ZM8.84596 5.60898V5.18653H8.42351V5.60898H8.84596ZM8.84596 8.40301H8.42351V8.82545H8.84596V8.40301ZM16.0963 7.00599C16.0963 7.89792 15.8908 8.6998 15.4845 9.42065L16.2205 9.8355C16.7026 8.98024 16.9412 8.03406 16.9412 7.00599H16.0963ZM15.4861 9.41775C15.0861 10.1145 14.4897 10.677 13.679 11.1023L14.0714 11.8505C15.0088 11.3588 15.7305 10.6891 16.2189 9.8384L15.4861 9.41775ZM13.6764 11.1037C12.892 11.522 11.9181 11.7417 10.7373 11.7417V12.5866C12.0209 12.5866 13.139 12.3478 14.074 11.8492L13.6764 11.1037ZM10.7373 11.7417H8.84596V12.5866H10.7373V11.7417ZM8.42351 12.1642V17H9.2684V12.1642H8.42351ZM8.84596 16.5776H4.07462V17.4224H8.84596V16.5776ZM4.49707 17V1.78332H3.65218V17H4.49707ZM4.07462 2.20577H10.7373V1.36087H4.07462V2.20577ZM10.7373 2.20577C12.5312 2.20577 13.8371 2.66039 14.7223 3.5071L15.3063 2.89655C14.2142 1.85192 12.6687 1.36087 10.7373 1.36087V2.20577ZM14.7245 3.50919C15.6296 4.36255 16.0963 5.51234 16.0963 7.00599H16.9412C16.9412 5.31876 16.405 3.93244 15.3041 2.89446L14.7245 3.50919ZM10.2 8.82545C10.7534 8.82545 11.247 8.69561 11.6019 8.36125C11.9616 8.02242 12.1054 7.54345 12.1054 7.00599H11.2605C11.2605 7.39988 11.1572 7.61941 11.0225 7.74626C10.8832 7.87757 10.6353 7.98056 10.2 7.98056V8.82545ZM12.1054 7.00599C12.1054 6.46854 11.9616 5.98956 11.6019 5.65074C11.247 5.31638 10.7534 5.18653 10.2 5.18653V6.03143C10.6353 6.03143 10.8832 6.13442 11.0225 6.26573C11.1572 6.39258 11.2605 6.6121 11.2605 7.00599H12.1054ZM10.2 5.18653H8.84596V6.03143H10.2V5.18653ZM8.42351 5.60898V8.40301H9.2684V5.60898H8.42351ZM8.84596 8.82545H10.2V7.98056H8.84596V8.82545Z"
        fill="white" mask="url(#path-1-outside-1_4_460)" />
    <mask id="path-3-outside-2_4_460" maskUnits="userSpaceOnUse" x="3.84497" y="1.84473" width="14"
        height="17" fill="black">
        <rect fill="white" x="3.84497" y="1.84473" width="14" height="17" />
        <path
            d="M17.3637 7.85072C17.3637 8.81072 17.1417 9.68475 16.6975 10.4728C16.2533 11.2465 15.5942 11.8627 14.7202 12.3212C13.8605 12.7797 12.8145 13.0089 11.5823 13.0089H9.69093V17.8447H4.91959V2.62805H11.5823C13.4449 2.62805 14.8706 3.10088 15.8593 4.04655C16.8623 4.99222 17.3637 6.26028 17.3637 7.85072ZM11.045 9.24773C12.0336 9.24773 12.5279 8.78206 12.5279 7.85072C12.5279 6.91938 12.0336 6.45371 11.045 6.45371H9.69093V9.24773H11.045Z" />
    </mask>
    <path
        d="M16.6975 10.4728L17.0639 10.6831L17.0655 10.6802L16.6975 10.4728ZM14.7202 12.3212L14.5239 11.9471L14.5214 11.9484L14.7202 12.3212ZM9.69093 13.0089V12.5865H9.26848V13.0089H9.69093ZM9.69093 17.8447V18.2672H10.1134V17.8447H9.69093ZM4.9196 17.8447H4.49715V18.2672H4.9196V17.8447ZM4.9196 2.62805V2.2056H4.49715V2.62805H4.9196ZM15.8593 4.04655L15.5673 4.35184L15.5695 4.35392L15.8593 4.04655ZM9.69093 6.45371V6.03126H9.26848V6.45371H9.69093ZM9.69093 9.24773H9.26848V9.67018H9.69093V9.24773ZM16.9413 7.85072C16.9413 8.74265 16.7358 9.54452 16.3295 10.2654L17.0655 10.6802C17.5476 9.82497 17.7862 8.87879 17.7862 7.85072H16.9413ZM16.3311 10.2625C15.9311 10.9593 15.3346 11.5218 14.5239 11.9471L14.9164 12.6953C15.8537 12.2035 16.5755 11.5338 17.0638 10.6831L16.3311 10.2625ZM14.5214 11.9484C13.7369 12.3668 12.7631 12.5865 11.5823 12.5865V13.4314C12.8659 13.4314 13.984 13.1926 14.919 12.6939L14.5214 11.9484ZM11.5823 12.5865H9.69093V13.4314H11.5823V12.5865ZM9.26848 13.0089V17.8447H10.1134V13.0089H9.26848ZM9.69093 17.4223H4.9196V18.2672H9.69093V17.4223ZM5.34204 17.8447V2.62805H4.49715V17.8447H5.34204ZM4.9196 3.05049H11.5823V2.2056H4.9196V3.05049ZM11.5823 3.05049C13.3762 3.05049 14.6821 3.50511 15.5673 4.35183L16.1513 3.74127C15.0592 2.69665 13.5137 2.2056 11.5823 2.2056V3.05049ZM15.5695 4.35392C16.4745 5.20727 16.9413 6.35706 16.9413 7.85072H17.7862C17.7862 6.16349 17.25 4.77717 16.1491 3.73918L15.5695 4.35392ZM11.045 9.67018C11.5983 9.67018 12.0919 9.54034 12.4469 9.20597C12.8065 8.86715 12.9504 8.38817 12.9504 7.85072H12.1055C12.1055 8.24461 12.0022 8.46414 11.8675 8.59098C11.7281 8.72229 11.4802 8.82528 11.045 8.82528V9.67018ZM12.9504 7.85072C12.9504 7.31327 12.8065 6.83429 12.4469 6.49547C12.0919 6.1611 11.5983 6.03126 11.045 6.03126V6.87616C11.4802 6.87616 11.7281 6.97915 11.8675 7.11046C12.0022 7.2373 12.1055 7.45683 12.1055 7.85072H12.9504ZM11.045 6.03126H9.69093V6.87616H11.045V6.03126ZM9.26848 6.45371V9.24773H10.1134V6.45371H9.26848ZM9.69093 9.67018H11.045V8.82528H9.69093V9.67018Z"
        fill="#E3026F" mask="url(#path-3-outside-2_4_460)" />
    <path
        d="M17.7861 8.69447C17.7861 9.65447 17.564 10.5285 17.1198 11.3166C16.6757 12.0903 16.0166 12.7064 15.1425 13.1649C14.2828 13.6234 13.2369 13.8527 12.0046 13.8527H10.1133V18.6885H5.34196V3.4718H12.0046C13.8673 3.4718 15.293 3.94463 16.2816 4.8903C17.2846 5.83597 17.7861 7.10403 17.7861 8.69447ZM11.4673 10.0915C12.456 10.0915 12.9503 9.62581 12.9503 8.69447C12.9503 7.76313 12.456 7.29746 11.4673 7.29746H10.1133V10.0915H11.4673Z"
        fill="#FFD549" />
    <circle cx="15.5453" cy="17.0238" r="2.17619" fill="#DC2B2B" />
</svg>
