<svg width="41" height="27" viewBox="0 0 41 27" fill="none" xmlns="http://www.w3.org/2000/svg">
    <g clip-path="url(#clip0_4_532)">
        <mask id="mask0_4_532" style="mask-type:luminance" maskUnits="userSpaceOnUse" x="0" y="0"
            width="41" height="27">
            <path d="M41 0H0.0499878V26.25H41V0Z" fill="white" />
        </mask>
        <g mask="url(#mask0_4_532)">
            <path
                d="M2.14999 0H38.9C40.0598 0 41 0.940223 41 2.1V24.15C41 25.3098 40.0598 26.25 38.9 26.25H2.14999C0.99021 26.25 0.0499878 25.3098 0.0499878 24.15V2.1C0.0499878 0.940223 0.99021 0 2.14999 0Z"
                fill="#1434CB" />
            <path
                d="M25.766 7.51343C23.3071 7.51343 21.1098 8.78823 21.1098 11.1435C21.1098 13.8447 25.0069 14.0312 25.0069 15.3882C25.0069 15.9595 24.3522 16.471 23.2343 16.471C21.6476 16.471 20.4617 15.7563 20.4617 15.7563L19.9542 18.1331C19.9542 18.1331 21.3204 18.7368 23.1341 18.7368C25.8224 18.7368 27.9377 17.3994 27.9377 15.0038C27.9377 12.1496 24.0245 11.9686 24.0245 10.7091C24.0245 10.2615 24.5618 9.77109 25.6767 9.77109C26.9345 9.77109 27.9607 10.2908 27.9607 10.2908L28.4573 7.99527C28.4573 7.99527 27.3407 7.51343 25.766 7.51343ZM3.27005 7.68668L3.21051 8.03318C3.21051 8.03318 4.24494 8.22255 5.17662 8.60034C6.37624 9.03346 6.46166 9.28567 6.66373 10.0689L8.86527 18.5581H11.8165L16.363 7.68668H13.4186L10.4972 15.0782L9.30506 8.8128C9.1957 8.09576 8.64194 7.68668 7.96411 7.68668H3.27005ZM17.547 7.68668L15.2372 18.5581H18.0449L20.3467 7.68668H17.547ZM33.2068 7.68668C32.5298 7.68668 32.1711 8.0493 31.9078 8.68287L27.7943 18.5581H30.7387L31.3084 16.9122H34.8956L35.242 18.5581H37.84L35.5735 7.68668H33.2068ZM33.5898 10.6238L34.4626 14.7033H32.1243L33.5898 10.6238Z"
                fill="white" />
        </g>
    </g>
    <defs>
        <clipPath id="clip0_4_532">
            <rect width="40.95" height="26.25" fill="white" transform="translate(0.0499878)" />
        </clipPath>
    </defs>
</svg>
